<svg xmlns="http://www.w3.org/2000/svg" version="1.1" xmlns:xlink="http://www.w3.org/1999/xlink" xmlns:svgjs="http://svgjs.dev/svgjs" width="1542" height="757" preserveAspectRatio="none" viewBox="0 0 1542 757"><g mask="url(&quot;#SvgjsMask1689&quot;)" fill="none"><rect width="1542" height="757" x="0" y="0" fill="url(&quot;#SvgjsLinearGradient1690&quot;)"></rect><path d="M 0,188 C 102.8,172.4 308.4,120 514,110 C 719.6,100 822.4,149.8 1028,138 C 1233.6,126.2 1439.2,68.4 1542,51L1542 757L0 757z" fill="rgba(221, 243, 255, 1)"></path><path d="M 0,461 C 22.2,433 66.6,333.4 111,321 C 155.4,308.6 177.6,404.2 222,399 C 266.4,393.8 288.6,298.6 333,295 C 377.4,291.4 399.6,364.4 444,381 C 488.4,397.6 510.6,363 555,378 C 599.4,393 621.6,456.6 666,456 C 710.4,455.4 732.6,366.8 777,375 C 821.4,383.2 843.6,499.8 888,497 C 932.4,494.2 954.6,368.2 999,361 C 1043.4,353.8 1065.6,474.4 1110,461 C 1154.4,447.6 1176.6,285.4 1221,294 C 1265.4,302.6 1287.6,510.8 1332,504 C 1376.4,497.2 1401,278 1443,260 C 1485,242 1522.2,383.2 1542,414L1542 757L0 757z" fill="rgba(221, 243, 255, 1)"></path><path d="M 0,580 C 20.6,610.6 61.8,745 103,733 C 144.2,721 164.8,527.8 206,520 C 247.2,512.2 267.8,691.8 309,694 C 350.2,696.2 370.8,538.6 412,531 C 453.2,523.4 473.8,656.8 515,656 C 556.2,655.2 576.8,518.4 618,527 C 659.2,535.6 679.8,689 721,699 C 762.2,709 782.8,565.8 824,577 C 865.2,588.2 885.8,769.4 927,755 C 968.2,740.6 988.8,521.6 1030,505 C 1071.2,488.4 1091.8,659.8 1133,672 C 1174.2,684.2 1194.8,572.6 1236,566 C 1277.2,559.4 1297.8,630.2 1339,639 C 1380.2,647.8 1401.4,596.4 1442,610 C 1482.6,623.6 1522,687.6 1542,707L1542 757L0 757z" fill="rgba(221, 243, 255, 1)"></path></g><defs><mask id="SvgjsMask1689"><rect width="1542" height="757" fill="#ffffff"></rect></mask><linearGradient x1="12.73%" y1="-25.92%" x2="87.27%" y2="125.92%" gradientUnits="userSpaceOnUse" id="SvgjsLinearGradient1690"><stop stop-color="#0e2a47" offset="0"></stop><stop stop-color="rgba(255, 255, 255, 1)" offset="0"></stop></linearGradient></defs></svg>